# xmcd
#
# Track frame offsets:
# 182
# 12762
# 28277
# 44340
# 54515
# 68052
# 82147
# 94415
# 107717
# 122760
# 136955
# 148527
# 162830
# 176172
# 193657
# 204817
# 215010
# 228380
# 240777
# 255795
# 274192
# 288257
# 304055
# 315890
#
# Disc length: 4384 seconds
#
#
# Revision: 1
# Processed by: cddbd v1.5.1PL2 Copyright (c) Steve Scherf et al.
# Submitted via: FreeRIP 2.945 
#
DISCID=4d111e18
DTITLE=matogrosso and mathias vol- 2 - dose dupla ( remasterizado)
DYEAR=1900
DGENRE=sertanejo
TTITLE0=em mulher não se bate
TTITLE1=tropeiro gaucho
TTITLE2=o pioneiro
TTITLE3=ponto final
TTITLE4=meu mundo caiu
TTITLE5=turbilhão
TTITLE6=pedaço de minha vida
TTITLE7=delírio de saudade
TTITLE8=casebre de palha
TTITLE9=morena linda de mato grosso
TTITLE10=o lavrador
TTITLE11=conclusão
TTITLE12=pai tião
TTITLE13=o matuto
TTITLE14=o pracinha
TTITLE15=celina
TTITLE16=canção do vaqueiro
TTITLE17=espinhos da vida
TTITLE18=fronteiriça
TTITLE19=obrigado papai
TTITLE20=saudade da roça
TTITLE21=eu não queria chorar
TTITLE22=o pregador
TTITLE23=na beira do cais
EXTD=
EXTT0=
EXTT1=
EXTT2=
EXTT3=
EXTT4=
EXTT5=
EXTT6=
EXTT7=
EXTT8=
EXTT9=
EXTT10=
EXTT11=
EXTT12=
EXTT13=
EXTT14=
EXTT15=
EXTT16=
EXTT17=
EXTT18=
EXTT19=
EXTT20=
EXTT21=
EXTT22=
EXTT23=
PLAYORDER=
